# Blender v2.78 (sub 0) OBJ File: ''
# www.blender.org
mtllib Big_C_Chicken_Textured_01.mtl
o Chicken_Chicken_01_Cube.002
v -0.571855 1.275148 -0.347293
v -0.465552 1.475521 -0.333999
v -0.423786 1.433754 -0.554414
v -0.466606 1.265621 -0.610429
v 0.265821 1.275790 -0.749834
v 0.255653 1.476575 -0.610429
v 0.423786 1.433754 -0.554414
v 0.466606 1.265621 -0.610429
v 0.537791 1.258174 0.353973
v 0.437186 1.447155 0.341886
v 0.374638 1.384607 0.560215
v 0.409742 1.232419 0.617278
v -0.221023 1.230992 0.798302
v -0.222450 1.419711 0.617278
v -0.374638 1.384607 0.560215
v -0.409742 1.232419 0.617278
v 0.248205 0.472178 0.353973
v 0.437186 0.572783 0.341886
v 0.374638 0.635331 0.560215
v 0.222450 0.600227 0.617278
v -0.248205 1.547760 0.353973
v -0.437186 1.447155 0.341886
v 0.248205 1.547760 0.353973
v 0.000000 1.580710 0.360334
v 0.000000 1.441090 0.635950
v 0.222450 1.419711 0.617278
v 0.265179 1.581824 -0.347293
v 0.000000 1.616011 -0.354774
v 0.000000 1.646760 0.002458
v 0.266650 1.607188 0.002655
v -0.265179 1.581824 -0.347293
v -0.475510 1.485479 0.002969
v -0.266650 1.607188 0.002655
v -0.248205 0.472178 0.353973
v 0.000000 0.439228 0.360334
v 0.000000 0.578847 0.635950
v -0.222450 0.600227 0.617278
v -0.265179 0.438114 -0.347293
v 0.000000 0.403926 -0.354774
v 0.000000 0.373178 0.002458
v -0.266650 0.412749 0.002655
v 0.265179 0.438114 -0.347293
v 0.465552 0.544417 -0.333999
v 0.475510 0.534459 0.002969
v 0.266650 0.412749 0.002655
v -0.221023 0.788946 0.798302
v -0.271749 1.009969 0.829696
v -0.431122 1.009969 0.635950
v -0.409742 0.787519 0.617278
v 0.271749 1.009969 0.829696
v 0.221023 1.230992 0.798302
v 0.123527 1.133496 1.035443
v 0.159848 1.009969 1.041549
v 0.000000 1.281718 0.829696
v 0.537791 0.761764 0.353973
v 0.570741 1.009969 0.360334
v 0.431122 1.009969 0.635950
v 0.409742 0.787519 0.617278
v 0.571855 0.744790 -0.347293
v 0.606042 1.009969 -0.354774
v 0.636791 1.009969 0.002458
v 0.597220 0.743319 0.002655
v 0.571855 1.275148 -0.347293
v 0.465552 1.475521 -0.333999
v 0.475510 1.485479 0.002969
v 0.597220 1.276619 0.002655
v 0.265821 0.744148 -0.749834
v 0.271524 1.009969 -0.794659
v 0.483879 1.009969 -0.633029
v 0.466606 0.754316 -0.610429
v -0.265821 0.744148 -0.749834
v -0.271524 1.009969 -0.794659
v 0.000000 1.009969 -0.847166
v 0.000000 0.738445 -0.794659
v -0.265821 1.275790 -0.749834
v -0.255653 1.476575 -0.610429
v 0.000000 1.493847 -0.633029
v 0.000000 1.281493 -0.794659
v -0.571855 0.744790 -0.347293
v -0.606042 1.009969 -0.354774
v -0.483879 1.009969 -0.633029
v -0.466606 0.754316 -0.610429
v -0.537791 0.761764 0.353973
v -0.570741 1.009969 0.360334
v -0.636791 1.009969 0.002458
v -0.597220 0.743319 0.002655
v -0.537791 1.258174 0.353973
v -0.597220 1.276619 0.002655
v -0.437186 0.572783 0.341886
v -0.475510 0.534459 0.002969
v -0.374638 0.635330 0.560215
v -0.465552 0.544417 -0.333999
v -0.423786 0.586183 -0.554414
v -0.255653 0.543362 -0.610429
v 0.000000 0.526090 -0.633029
v 0.255653 0.543362 -0.610429
v 0.423786 0.586183 -0.554414
v -0.159848 1.009969 1.041549
v -0.123527 1.133496 1.035443
v 0.221023 0.788946 0.798302
v 0.000000 0.738220 0.829696
v 0.123527 0.886442 1.035443
v 0.000000 0.850121 1.041549
v 0.000000 1.169816 1.041549
v 0.096428 1.106397 1.284000
v 0.126200 1.009969 1.287024
v 0.096428 0.913541 1.284000
v -0.123527 0.886442 1.035443
v -0.096428 0.913541 1.284000
v -0.126200 1.009969 1.287024
v -0.096428 1.106397 1.284000
v -0.103301 0.907417 1.544813
v -0.136761 1.009969 1.548574
v -0.103301 1.112521 1.544813
v 0.000000 1.135932 1.286818
v 0.000000 1.143486 1.545727
v 0.103301 1.112521 1.544813
v 0.000000 0.884006 1.286818
v 0.103301 0.907417 1.544813
v 0.000000 0.876452 1.545727
v 0.000000 1.155480 1.752640
v 0.119449 1.122824 1.776537
v 0.119449 0.897113 1.776537
v 0.000000 0.864458 1.752640
v -0.119449 0.897113 1.776537
v -0.119449 1.122824 1.776537
v 0.136761 1.009969 1.548574
v 0.000000 0.772737 1.881171
v -0.215093 0.822519 1.914970
v -0.215093 1.197419 1.914970
v 0.000000 1.247200 1.881171
v 0.201434 1.009969 1.784435
v 0.215093 1.197419 1.914970
v 0.363375 1.009969 1.974765
v 0.215093 0.822519 1.914970
v -0.201434 1.009969 1.784435
v 0.213958 1.189972 2.030122
v 0.314170 1.009969 2.165051
v 0.213958 0.829966 2.030122
v -0.363375 1.009969 1.974765
v -0.213958 0.829966 2.030122
v -0.314170 1.009969 2.165051
v -0.213958 1.189972 2.030122
v 0.000000 1.009969 2.021076
v 0.000000 0.811041 1.984444
v 0.000000 1.208896 1.984444
vt 0.8959 0.3390
vt 0.8423 0.3140
vt 0.8688 0.2687
vt 0.9134 0.2642
vt 0.7970 0.1022
vt 0.7643 0.1530
vt 0.7298 0.1304
vt 0.7341 0.0858
vt 0.5083 0.2398
vt 0.5602 0.2718
vt 0.5223 0.3223
vt 0.4721 0.3234
vt 0.5871 0.5335
vt 0.6332 0.4605
vt 0.6780 0.4772
vt 0.6771 0.5274
vt 0.6881 0.4011
vt 0.7284 0.4393
vt 0.6780 0.4773
vt 0.6333 0.4605
vt 0.6879 0.4010
vt 0.7283 0.4391
vt 0.5984 0.3120
vt 0.6416 0.3580
vt 0.5825 0.4175
vt 0.5392 0.3670
vt 0.7191 0.1965
vt 0.7610 0.2381
vt 0.7036 0.2958
vt 0.6602 0.2507
vt 0.8027 0.2797
vt 0.7916 0.3779
vt 0.7489 0.3390
vt 0.5989 0.3118
vt 0.6419 0.3580
vt 0.5826 0.4174
vt 0.5395 0.3667
vt 0.7198 0.1967
vt 0.7616 0.2383
vt 0.7040 0.2959
vt 0.6607 0.2507
vt 0.8032 0.2801
vt 0.8427 0.3145
vt 0.7919 0.3782
vt 0.7492 0.3392
vt 0.4666 0.4130
vt 0.3831 0.3983
vt 0.3979 0.3067
vt 0.4725 0.3230
vt 0.3829 0.3989
vt 0.4664 0.4134
vt 0.4092 0.5109
vt 0.3607 0.4881
vt 0.5215 0.4787
vt 0.7605 0.4910
vt 0.8002 0.5661
vt 0.6933 0.6021
vt 0.6770 0.5274
vt 0.8962 0.3395
vt 0.9805 0.3691
vt 0.9119 0.4868
vt 0.8412 0.4232
vt 0.6594 0.1037
vt 0.6846 0.1571
vt 0.6210 0.2081
vt 0.5759 0.1589
vt 0.8974 0.2019
vt 0.9718 0.1634
vt 0.9960 0.2572
vt 0.9139 0.2648
vt 0.7980 0.1025
vt 0.8364 0.0281
vt 0.9146 0.0852
vt 0.8562 0.1437
vt 0.8967 0.2013
vt 0.8460 0.2343
vt 0.8090 0.1898
vt 0.8554 0.1432
vt 0.6603 0.1037
vt 0.6307 0.0195
vt 0.7426 0.0039
vt 0.7350 0.0860
vt 0.5089 0.2395
vt 0.4338 0.1999
vt 0.5130 0.0881
vt 0.5767 0.1588
vt 0.7605 0.4907
vt 0.8411 0.4227
vt 0.8004 0.5657
vt 0.9119 0.4862
vt 0.6936 0.6020
vt 0.5607 0.2716
vt 0.6217 0.2081
vt 0.5227 0.3220
vt 0.6854 0.1572
vt 0.7307 0.1306
vt 0.9710 0.1626
vt 0.9137 0.0846
vt 0.9954 0.2564
vt 0.7651 0.1533
vt 0.8097 0.1902
vt 0.8466 0.2347
vt 0.8693 0.2692
vt 0.6296 0.0195
vt 0.5121 0.0885
vt 0.7414 0.0037
vt 0.6021 0.6170
vt 0.5130 0.6396
vt 0.4899 0.5912
vt 0.3974 0.3073
vt 0.5870 0.5334
vt 0.5215 0.4785
vt 0.6018 0.6169
vt 0.4897 0.5909
vt 0.4511 0.5489
vt 0.4513 0.5494
vt 0.4332 0.2004
vt 0.8354 0.0276
vt 0.9802 0.3683
vt 0.3409 0.5978
vt 0.3079 0.5712
vt 0.5126 0.6393
vt 0.4296 0.6924
vt 0.4029 0.6594
vt 0.3607 0.4874
vt 0.4092 0.5104
vt 0.3406 0.5971
vt 0.3077 0.5704
vt 0.4301 0.6929
vt 0.4033 0.6600
vt 0.2602 0.6753
vt 0.2301 0.6423
vt 0.3585 0.7706
vt 0.3254 0.7407
vt 0.3721 0.6289
vt 0.2921 0.7093
vt 0.2606 0.6762
vt 0.3718 0.6282
vt 0.3248 0.7399
vt 0.2916 0.7085
vt 0.2260 0.7757
vt 0.1821 0.7406
vt 0.2605 0.8186
vt 0.2253 0.7747
vt 0.1815 0.7395
vt 0.2613 0.8195
vt 0.3578 0.7699
vt 0.2305 0.6433
vt 0.1823 0.8177
vt 0.1221 0.7761
vt 0.2249 0.8790
vt 0.1831 0.8188
vt 0.1435 0.6950
vt 0.1228 0.7774
vt 0.0465 0.7304
vt 0.3063 0.8570
vt 0.2711 0.9542
vt 0.2240 0.8780
vt 0.3071 0.8578
vt 0.1431 0.6938
vt 0.0955 0.8025
vt 0.0059 0.8020
vt 0.1996 0.9949
vt 0.1989 0.9054
vt 0.0459 0.7290
vt 0.0947 0.8012
vt 0.0052 0.8004
vt 0.2722 0.9551
vt 0.2008 0.9960
vt 0.1999 0.9064
vt 0.0975 0.9025
vt 0.1541 0.8460
vt 0.1550 0.8471
vt 0.0985 0.9038
vn -0.8615 0.4060 -0.3050
vn 0.4656 0.4656 -0.7527
vn 0.8211 0.4076 0.3996
vn -0.5223 0.5223 0.6740
vn 0.4076 -0.8211 0.3996
vn -0.4076 0.8211 0.3996
vn 0.1260 0.8861 0.4461
vn 0.1381 0.9873 -0.0786
vn -0.4874 0.8716 -0.0529
vn -0.1260 -0.8861 0.4461
vn -0.1381 -0.9873 -0.0786
vn 0.4874 -0.8716 -0.0529
vn -0.7187 -0.1923 0.6682
vn 0.8508 0.2644 0.4542
vn 0.1923 0.7187 0.6682
vn 0.8861 -0.1260 0.4461
vn 0.9873 -0.1381 -0.0786
vn 0.8716 0.4874 -0.0529
vn 0.5860 -0.1292 -0.7999
vn -0.1772 -0.1772 -0.9681
vn -0.1292 0.5860 -0.7999
vn -0.9154 -0.1128 -0.3865
vn -0.9745 -0.1394 0.1760
vn -0.8594 0.4850 0.1616
vn -0.9745 0.1394 0.1760
vn -0.8861 0.1260 0.4461
vn -0.8211 0.4076 0.3996
vn -0.8594 -0.4850 0.1616
vn -0.8211 -0.4076 0.3996
vn -0.8861 -0.1260 0.4461
vn -0.8615 -0.4060 -0.3050
vn -0.8716 -0.4874 -0.0529
vn -0.9873 -0.1381 -0.0786
vn -0.1772 0.1772 -0.9681
vn -0.5860 0.1292 -0.7999
vn -0.4656 0.4656 -0.7527
vn -0.1292 -0.5860 -0.7999
vn -0.4656 -0.4656 -0.7527
vn -0.5860 -0.1292 -0.7999
vn 0.4656 -0.4656 -0.7527
vn 0.1292 -0.5860 -0.7999
vn 0.1772 -0.1772 -0.9681
vn 0.9873 0.1381 -0.0786
vn 0.9154 0.1128 -0.3865
vn 0.8615 0.4060 -0.3050
vn 0.8716 -0.4874 -0.0529
vn 0.8615 -0.4060 -0.3050
vn 0.9154 -0.1128 -0.3865
vn 0.8211 -0.4076 0.3996
vn 0.8594 -0.4850 0.1616
vn 0.9745 -0.1394 0.1760
vn -0.8508 0.2644 0.4542
vn 0.7187 0.1923 0.6682
vn 0.5223 0.5223 0.6740
vn 0.1923 -0.7187 0.6682
vn 0.5223 -0.5223 0.6740
vn 0.7187 -0.1923 0.6682
vn -0.5223 -0.5223 0.6740
vn -0.1923 -0.7187 0.6682
vn 0.2644 -0.8508 0.4542
vn 0.1381 -0.9873 -0.0786
vn 0.1128 -0.9154 -0.3865
vn 0.4060 -0.8615 -0.3050
vn -0.4874 -0.8716 -0.0529
vn -0.4060 -0.8615 -0.3050
vn -0.1128 -0.9154 -0.3865
vn -0.4076 -0.8211 0.3996
vn -0.4850 -0.8594 0.1616
vn -0.1394 -0.9745 0.1760
vn -0.1381 0.9873 -0.0786
vn -0.1128 0.9154 -0.3865
vn -0.4060 0.8615 -0.3050
vn 0.4874 0.8716 -0.0529
vn 0.4060 0.8615 -0.3050
vn 0.1128 0.9154 -0.3865
vn 0.4076 0.8211 0.3996
vn 0.4850 0.8594 0.1616
vn 0.1394 0.9745 0.1760
vn -0.1260 0.8861 0.4461
vn -0.1394 0.9745 0.1760
vn -0.4850 0.8594 0.1616
vn 0.1260 -0.8861 0.4461
vn 0.1394 -0.9745 0.1760
vn 0.4850 -0.8594 0.1616
vn -0.7187 0.1923 0.6682
vn -0.2644 0.8508 0.4542
vn -0.1923 0.7187 0.6682
vn 0.8861 0.1260 0.4461
vn 0.9745 0.1394 0.1760
vn 0.8594 0.4850 0.1616
vn 0.5860 0.1292 -0.7999
vn 0.1772 0.1772 -0.9681
vn 0.1292 0.5860 -0.7999
vn -0.9154 0.1128 -0.3865
vn -0.9873 0.1381 -0.0786
vn -0.8716 0.4874 -0.0529
vn 0.9477 0.2903 0.1325
vn 0.9477 -0.2903 0.1325
vn -0.9477 -0.2903 0.1325
vn -0.9477 0.2903 0.1325
vn -0.8508 -0.2644 0.4542
vn 0.2644 0.8508 0.4542
vn -0.2644 -0.8508 0.4542
vn 0.8508 -0.2644 0.4542
vn -0.9528 -0.3016 -0.0353
vn -0.9528 0.3016 -0.0353
vn 0.2893 0.9568 -0.0290
vn 0.2893 -0.9568 -0.0290
vn -0.2892 0.9480 0.1329
vn -0.2892 -0.9480 0.1329
vn 0.2892 -0.9480 0.1329
vn 0.2892 0.9480 0.1329
vn 0.2798 0.9582 -0.0590
vn 0.2798 -0.9582 -0.0590
vn -0.2798 -0.9582 -0.0590
vn -0.2798 0.9582 -0.0590
vn 0.9528 -0.3016 -0.0353
vn 0.9528 0.3016 -0.0353
vn -0.2893 0.9568 -0.0290
vn -0.2893 -0.9568 -0.0290
vn -0.2878 -0.7632 -0.5786
vn -0.2878 0.7632 -0.5786
vn 0.6828 0.3834 -0.6220
vn 0.6828 -0.3834 -0.6220
vn -0.8735 0.4594 -0.1611
vn -0.8735 -0.4594 -0.1611
vn 0.8735 -0.4594 -0.1611
vn 0.8735 0.4594 -0.1611
vn 0.7827 0.6055 0.1438
vn 0.7827 -0.6055 0.1438
vn -0.7827 -0.6055 0.1438
vn -0.7827 0.6055 0.1438
vn 0.2878 -0.7632 -0.5786
vn 0.2878 0.7632 -0.5786
vn -0.6828 0.3834 -0.6220
vn -0.6828 -0.3834 -0.6220
vn -0.3096 -0.3230 0.8943
vn -0.3096 0.3230 0.8943
vn 0.3096 -0.3230 0.8943
vn 0.3096 0.3230 0.8943
vn -0.1178 0.9718 0.2042
vn -0.1178 -0.9718 0.2042
vn 0.1178 -0.9718 0.2042
vn 0.1178 0.9718 0.2042
usemtl Material.001
s 1
f 1/1/1 2/2/1 3/3/1 4/4/1
f 5/5/2 6/6/2 7/7/2 8/8/2
f 9/9/3 10/10/3 11/11/3 12/12/3
f 13/13/4 14/14/4 15/15/4 16/16/4
f 17/17/5 18/18/5 19/19/5 20/20/5
f 21/21/6 22/22/6 15/15/6 14/14/6
f 23/23/7 24/24/7 25/25/7 26/26/7
f 27/27/8 28/28/8 29/29/8 30/30/8
f 31/31/9 2/2/9 32/32/9 33/33/9
f 34/34/10 35/35/10 36/36/10 37/37/10
f 38/38/11 39/39/11 40/40/11 41/41/11
f 42/42/12 43/43/12 44/44/12 45/45/12
f 46/46/13 47/47/13 48/48/13 49/49/13
f 50/50/14 51/51/14 52/52/14 53/53/14
f 51/51/15 26/26/15 25/25/15 54/54/15
f 55/55/16 56/56/16 57/57/16 58/58/16
f 59/59/17 60/60/17 61/61/17 62/62/17
f 63/63/18 64/64/18 65/65/18 66/66/18
f 67/67/19 68/68/19 69/69/19 70/70/19
f 71/71/20 72/72/20 73/73/20 74/74/20
f 75/75/21 76/76/21 77/77/21 78/78/21
f 79/79/22 80/80/22 81/81/22 82/82/22
f 83/83/23 84/84/23 85/85/23 86/86/23
f 87/87/24 22/22/24 32/32/24 88/88/24
f 84/89/25 87/87/25 88/88/25 85/90/25
f 48/91/26 16/16/26 87/87/26 84/89/26
f 16/16/27 15/15/27 22/22/27 87/87/27
f 89/92/28 83/83/28 86/86/28 90/93/28
f 91/94/29 49/49/29 83/83/29 89/92/29
f 49/49/30 48/48/30 84/84/30 83/83/30
f 92/95/31 79/79/31 82/82/31 93/96/31
f 90/93/32 86/86/32 79/79/32 92/95/32
f 86/86/33 85/85/33 80/80/33 79/79/33
f 72/97/34 75/75/34 78/78/34 73/98/34
f 81/99/35 4/4/35 75/75/35 72/97/35
f 4/4/36 3/3/36 76/76/36 75/75/36
f 94/100/37 71/71/37 74/74/37 95/101/37
f 93/96/38 82/82/38 71/71/38 94/100/38
f 82/82/39 81/81/39 72/72/39 71/71/39
f 96/102/40 67/67/40 70/70/40 97/103/40
f 95/101/41 74/74/41 67/67/41 96/102/41
f 74/74/42 73/73/42 68/68/42 67/67/42
f 60/104/43 63/63/43 66/66/43 61/105/43
f 69/106/44 8/8/44 63/63/44 60/104/44
f 8/8/45 7/7/45 64/64/45 63/63/45
f 43/43/46 59/59/46 62/62/46 44/44/46
f 97/103/47 70/70/47 59/59/47 43/43/47
f 70/70/48 69/69/48 60/60/48 59/59/48
f 18/18/49 55/55/49 58/58/49 19/19/49
f 44/44/50 62/62/50 55/55/50 18/18/50
f 62/62/51 61/61/51 56/56/51 55/55/51
f 13/13/52 47/107/52 98/108/52 99/109/52
f 57/110/53 12/12/53 51/51/53 50/50/53
f 12/12/54 11/11/54 26/26/54 51/51/54
f 20/20/55 100/111/55 101/112/55 36/36/55
f 19/19/56 58/58/56 100/111/56 20/20/56
f 58/58/57 57/57/57 50/113/57 100/111/57
f 37/37/58 46/46/58 49/49/58 91/94/58
f 36/36/59 101/112/59 46/46/59 37/37/59
f 101/112/60 100/111/60 102/114/60 103/115/60
f 39/39/61 42/42/61 45/45/61 40/40/61
f 95/101/62 96/102/62 42/42/62 39/39/62
f 96/102/63 97/103/63 43/43/63 42/42/63
f 92/95/64 38/38/64 41/41/64 90/93/64
f 93/96/65 94/100/65 38/38/65 92/95/65
f 94/100/66 95/101/66 39/39/66 38/38/66
f 89/92/67 34/34/67 37/37/67 91/94/67
f 90/93/68 41/41/68 34/34/68 89/92/68
f 41/41/69 40/40/69 35/35/69 34/34/69
f 28/28/70 31/31/70 33/33/70 29/29/70
f 77/77/71 76/76/71 31/31/71 28/28/71
f 76/76/72 3/3/72 2/2/72 31/31/72
f 64/64/73 27/27/73 30/30/73 65/65/73
f 7/7/74 6/6/74 27/27/74 64/64/74
f 6/6/75 77/77/75 28/28/75 27/27/75
f 10/10/76 23/23/76 26/26/76 11/11/76
f 65/65/77 30/30/77 23/23/77 10/10/77
f 30/30/78 29/29/78 24/24/78 23/23/78
f 24/24/79 21/21/79 14/14/79 25/25/79
f 29/29/80 33/33/80 21/21/80 24/24/80
f 33/33/81 32/32/81 22/22/81 21/21/81
f 35/35/82 17/17/82 20/20/82 36/36/82
f 40/40/83 45/45/83 17/17/83 35/35/83
f 45/45/84 44/44/84 18/18/84 17/17/84
f 47/107/85 13/13/85 16/16/85 48/91/85
f 54/54/86 13/13/86 99/109/86 104/116/86
f 54/54/87 25/25/87 14/14/87 13/13/87
f 56/117/88 9/9/88 12/12/88 57/110/88
f 61/105/89 66/66/89 9/9/89 56/117/89
f 66/66/90 65/65/90 10/10/90 9/9/90
f 68/118/91 5/5/91 8/8/91 69/106/91
f 73/98/92 78/78/92 5/5/92 68/118/92
f 78/78/93 77/77/93 6/6/93 5/5/93
f 80/119/94 1/1/94 4/4/94 81/99/94
f 85/90/95 88/88/95 1/1/95 80/119/95
f 88/88/96 32/32/96 2/2/96 1/1/96
f 53/53/97 52/52/97 105/120/97 106/121/97
f 102/114/98 53/122/98 106/123/98 107/124/98
f 98/125/99 108/126/99 109/127/99 110/128/99
f 99/109/100 98/108/100 110/129/100 111/130/100
f 47/47/101 46/46/101 108/126/101 98/125/101
f 51/51/102 54/54/102 104/116/102 52/52/102
f 46/46/103 101/112/103 103/115/103 108/126/103
f 100/111/104 50/113/104 53/122/104 102/114/104
f 110/128/105 109/127/105 112/131/105 113/132/105
f 111/130/106 110/129/106 113/133/106 114/134/106
f 105/120/107 115/135/107 116/136/107 117/137/107
f 118/138/108 107/124/108 119/139/108 120/140/108
f 104/116/109 99/109/109 111/130/109 115/135/109
f 108/126/110 103/115/110 118/138/110 109/127/110
f 103/115/111 102/114/111 107/124/111 118/138/111
f 52/52/112 104/116/112 115/135/112 105/120/112
f 117/137/113 116/136/113 121/141/113 122/142/113
f 120/140/114 119/139/114 123/143/114 124/144/114
f 112/131/115 120/140/115 124/144/115 125/145/115
f 116/136/116 114/134/116 126/146/116 121/141/116
f 107/124/117 106/123/117 127/147/117 119/139/117
f 106/121/118 105/120/118 117/137/118 127/148/118
f 115/135/119 111/130/119 114/134/119 116/136/119
f 109/127/120 118/138/120 120/140/120 112/131/120
f 125/145/121 124/144/121 128/149/121 129/150/121
f 121/141/122 126/146/122 130/151/122 131/152/122
f 132/153/123 122/142/123 133/154/123 134/155/123
f 123/143/124 132/156/124 134/157/124 135/158/124
f 114/134/125 113/133/125 136/159/125 126/146/125
f 113/132/126 112/131/126 125/145/126 136/160/126
f 119/139/127 127/147/127 132/156/127 123/143/127
f 127/148/128 117/137/128 122/142/128 132/153/128
f 134/155/129 133/154/129 137/161/129 138/162/129
f 135/158/130 134/157/130 138/163/130 139/164/130
f 140/165/131 129/150/131 141/166/131 142/167/131
f 130/151/132 140/168/132 142/169/132 143/170/132
f 124/144/133 123/143/133 135/158/133 128/149/133
f 122/142/134 121/141/134 131/152/134 133/154/134
f 126/146/135 136/159/135 140/168/135 130/151/135
f 136/160/136 125/145/136 129/150/136 140/165/136
f 139/164/137 138/163/137 144/171/137 145/172/137
f 138/162/138 137/161/138 146/173/138 144/174/138
f 145/172/139 144/171/139 142/167/139 141/166/139
f 144/174/140 146/173/140 143/170/140 142/169/140
f 131/152/141 130/151/141 143/170/141 146/173/141
f 129/150/142 128/149/142 145/172/142 141/166/142
f 128/149/143 135/158/143 139/164/143 145/172/143
f 133/154/144 131/152/144 146/173/144 137/161/144
