# Blender v2.79 (sub 0) OBJ File: ''
# www.blender.org
mtllib Big_C_Chicken_01.mtl
o Chicken_01_Cube.002
v -0.374638 0.635330 0.560215
v -0.374638 1.384607 0.560215
v -0.423786 0.586183 -0.554414
v -0.423786 1.433754 -0.554414
v 0.374638 0.635331 0.560215
v 0.374638 1.384607 0.560215
v 0.423786 0.586183 -0.554414
v 0.423786 1.433754 -0.554414
v -0.475510 0.534459 0.002969
v -0.431122 1.009969 0.635950
v -0.475510 1.485479 0.002969
v -0.483879 1.009969 -0.633029
v 0.000000 0.526090 -0.633029
v 0.000000 1.493847 -0.633029
v 0.483879 1.009969 -0.633029
v 0.475510 0.534459 0.002969
v 0.475510 1.485479 0.002969
v 0.431122 1.009969 0.635950
v 0.000000 0.578847 0.635950
v 0.000000 1.441090 0.635950
v 0.000000 1.646760 0.002458
v 0.000000 0.373178 0.002458
v 0.126200 1.009969 1.287024
v 0.636791 1.009969 0.002458
v 0.000000 1.009969 -0.847166
v -0.636791 1.009969 0.002458
v -0.437186 0.572783 0.341886
v -0.409742 1.232419 0.617278
v -0.465552 1.475521 -0.333999
v -0.466606 0.754316 -0.610429
v -0.255653 0.543362 -0.610429
v 0.255653 1.476575 -0.610429
v 0.466606 0.754316 -0.610429
v 0.465552 0.544417 -0.333999
v 0.437186 1.447155 0.341886
v 0.409742 0.787519 0.617278
v 0.222450 0.600227 0.617278
v -0.222450 1.419711 0.617278
v -0.465552 0.544417 -0.333999
v -0.409742 0.787519 0.617278
v -0.437186 1.447155 0.341886
v -0.466606 1.265621 -0.610429
v 0.255653 0.543362 -0.610429
v -0.255653 1.476575 -0.610429
v 0.466606 1.265621 -0.610429
v 0.437186 0.572783 0.341886
v 0.465552 1.475521 -0.333999
v 0.409742 1.232419 0.617278
v -0.222450 0.600227 0.617278
v 0.222450 1.419711 0.617278
v 0.000000 1.580710 0.360334
v 0.000000 1.616011 -0.354774
v 0.266650 1.607188 0.002655
v -0.266650 1.607188 0.002655
v 0.000000 0.439228 0.360334
v 0.000000 0.403926 -0.354774
v -0.266650 0.412749 0.002655
v 0.266650 0.412749 0.002655
v -0.271749 1.009969 0.829696
v 0.271749 1.009969 0.829696
v 0.000000 0.738220 0.829696
v 0.000000 1.281718 0.829696
v 0.570741 1.009969 0.360334
v 0.606042 1.009969 -0.354774
v 0.597220 0.743319 0.002655
v 0.597220 1.276619 0.002655
v 0.271524 1.009969 -0.794659
v -0.271524 1.009969 -0.794659
v 0.000000 0.738445 -0.794659
v 0.000000 1.281493 -0.794659
v -0.606042 1.009969 -0.354774
v -0.570741 1.009969 0.360334
v -0.597220 0.743319 0.002655
v -0.597220 1.276619 0.002655
v -0.537791 1.258174 0.353973
v -0.537791 0.761764 0.353973
v -0.571855 0.744790 -0.347293
v -0.265821 1.275790 -0.749834
v -0.265821 0.744148 -0.749834
v 0.265821 0.744148 -0.749834
v 0.571855 1.275148 -0.347293
v 0.571855 0.744790 -0.347293
v 0.537791 0.761764 0.353973
v 0.221023 1.230992 0.798302
v 0.221023 0.788946 0.798302
v -0.221023 0.788946 0.798302
v 0.265179 0.438114 -0.347293
v -0.265179 0.438114 -0.347293
v -0.248205 0.472178 0.353973
v -0.265179 1.581824 -0.347293
v 0.265179 1.581824 -0.347293
v 0.248205 1.547760 0.353973
v -0.248205 1.547760 0.353973
v 0.248205 0.472178 0.353973
v -0.221023 1.230992 0.798302
v 0.537791 1.258174 0.353973
v 0.265821 1.275790 -0.749834
v -0.571855 1.275148 -0.347293
v 0.159848 1.009969 1.041549
v 0.136761 1.009969 1.548574
v 0.000000 1.169816 1.041549
v -0.159848 1.009969 1.041549
v 0.000000 0.850121 1.041549
v 0.123527 1.133496 1.035443
v 0.123527 0.886442 1.035443
v -0.123527 0.886442 1.035443
v -0.123527 1.133496 1.035443
v 0.201434 1.009969 1.784435
v 0.000000 1.135932 1.286818
v -0.126200 1.009969 1.287024
v 0.000000 0.884006 1.286818
v 0.096428 1.106397 1.284000
v 0.096428 0.913541 1.284000
v -0.096428 0.913541 1.284000
v -0.096428 1.106397 1.284000
v 0.000000 1.143486 1.545727
v -0.136761 1.009969 1.548574
v 0.000000 0.876452 1.545727
v 0.103301 1.112521 1.544813
v 0.103301 0.907417 1.544813
v -0.103301 0.907417 1.544813
v -0.103301 1.112521 1.544813
v 0.314170 1.009969 2.165051
v 0.000000 1.155480 1.752640
v -0.201434 1.009969 1.784435
v 0.000000 0.864458 1.752640
v 0.119449 1.122824 1.776537
v 0.119449 0.897113 1.776537
v -0.119449 0.897113 1.776537
v -0.119449 1.122824 1.776537
v 0.363375 1.009969 1.974765
v 0.000000 1.247200 1.881171
v -0.363375 1.009969 1.974765
v 0.000000 0.772737 1.881171
v 0.215093 1.197419 1.914970
v 0.215093 0.822519 1.914970
v -0.215093 0.822519 1.914970
v -0.215093 1.197419 1.914970
v 0.000000 1.009969 2.021076
v 0.000000 1.208896 1.984444
v -0.314170 1.009969 2.165051
v 0.000000 0.811041 1.984444
v 0.213958 1.189972 2.030122
v 0.213958 0.829966 2.030122
v -0.213958 0.829966 2.030122
v -0.213958 1.189972 2.030122
vn -0.8615 0.4060 -0.3050
vn 0.4656 0.4656 -0.7527
vn 0.8211 0.4076 0.3996
vn -0.5223 0.5223 0.6740
vn 0.4076 -0.8211 0.3996
vn -0.4076 0.8211 0.3996
vn 0.1260 0.8861 0.4461
vn 0.1381 0.9873 -0.0786
vn -0.4874 0.8716 -0.0529
vn -0.1260 -0.8861 0.4461
vn -0.1381 -0.9873 -0.0786
vn 0.4874 -0.8716 -0.0529
vn -0.7187 -0.1923 0.6682
vn 0.8508 0.2644 0.4542
vn 0.1923 0.7187 0.6682
vn 0.8861 -0.1260 0.4461
vn 0.9873 -0.1381 -0.0786
vn 0.8716 0.4874 -0.0529
vn 0.5860 -0.1292 -0.7999
vn -0.1772 -0.1772 -0.9681
vn -0.1292 0.5860 -0.7999
vn -0.9154 -0.1128 -0.3865
vn -0.9745 -0.1394 0.1760
vn -0.8594 0.4850 0.1616
vn -0.9745 0.1394 0.1760
vn -0.8861 0.1260 0.4461
vn -0.8211 0.4076 0.3996
vn -0.8594 -0.4850 0.1616
vn -0.8211 -0.4076 0.3996
vn -0.8861 -0.1260 0.4461
vn -0.8615 -0.4060 -0.3050
vn -0.8716 -0.4874 -0.0529
vn -0.9873 -0.1381 -0.0786
vn -0.1772 0.1772 -0.9681
vn -0.5860 0.1292 -0.7999
vn -0.4656 0.4656 -0.7527
vn -0.1292 -0.5860 -0.7999
vn -0.4656 -0.4656 -0.7527
vn -0.5860 -0.1292 -0.7999
vn 0.4656 -0.4656 -0.7527
vn 0.1292 -0.5860 -0.7999
vn 0.1772 -0.1772 -0.9681
vn 0.9873 0.1381 -0.0786
vn 0.9154 0.1128 -0.3865
vn 0.8615 0.4060 -0.3050
vn 0.8716 -0.4874 -0.0529
vn 0.8615 -0.4060 -0.3050
vn 0.9154 -0.1128 -0.3865
vn 0.8211 -0.4076 0.3996
vn 0.8594 -0.4850 0.1616
vn 0.9745 -0.1394 0.1760
vn -0.8508 0.2644 0.4542
vn 0.7187 0.1923 0.6682
vn 0.5223 0.5223 0.6740
vn 0.1923 -0.7187 0.6682
vn 0.5223 -0.5223 0.6740
vn 0.7187 -0.1923 0.6682
vn -0.5223 -0.5223 0.6740
vn -0.1923 -0.7187 0.6682
vn 0.2644 -0.8508 0.4542
vn 0.1381 -0.9873 -0.0786
vn 0.1128 -0.9154 -0.3865
vn 0.4060 -0.8615 -0.3050
vn -0.4874 -0.8716 -0.0529
vn -0.4060 -0.8615 -0.3050
vn -0.1128 -0.9154 -0.3865
vn -0.4076 -0.8211 0.3996
vn -0.4850 -0.8594 0.1616
vn -0.1394 -0.9745 0.1760
vn -0.1381 0.9873 -0.0786
vn -0.1128 0.9154 -0.3865
vn -0.4060 0.8615 -0.3050
vn 0.4874 0.8716 -0.0529
vn 0.4060 0.8615 -0.3050
vn 0.1128 0.9154 -0.3865
vn 0.4076 0.8211 0.3996
vn 0.4850 0.8594 0.1616
vn 0.1394 0.9745 0.1760
vn -0.1260 0.8861 0.4461
vn -0.1394 0.9745 0.1760
vn -0.4850 0.8594 0.1616
vn 0.1260 -0.8861 0.4461
vn 0.1394 -0.9745 0.1760
vn 0.4850 -0.8594 0.1616
vn -0.7187 0.1923 0.6682
vn -0.2644 0.8508 0.4542
vn -0.1923 0.7187 0.6682
vn 0.8861 0.1260 0.4461
vn 0.9745 0.1394 0.1760
vn 0.8594 0.4850 0.1616
vn 0.5860 0.1292 -0.7999
vn 0.1772 0.1772 -0.9681
vn 0.1292 0.5860 -0.7999
vn -0.9154 0.1128 -0.3865
vn -0.9873 0.1381 -0.0786
vn -0.8716 0.4874 -0.0529
vn 0.9477 0.2903 0.1325
vn 0.9477 -0.2903 0.1325
vn -0.9477 -0.2903 0.1325
vn -0.9477 0.2903 0.1325
vn -0.8508 -0.2644 0.4542
vn 0.2644 0.8508 0.4542
vn -0.2644 -0.8508 0.4542
vn 0.8508 -0.2644 0.4542
vn -0.9528 -0.3016 -0.0353
vn -0.9528 0.3016 -0.0353
vn 0.2893 0.9568 -0.0290
vn 0.2893 -0.9568 -0.0290
vn -0.2892 0.9480 0.1329
vn -0.2892 -0.9480 0.1329
vn 0.2892 -0.9480 0.1329
vn 0.2892 0.9480 0.1329
vn 0.2798 0.9583 -0.0590
vn 0.2798 -0.9583 -0.0590
vn -0.2798 -0.9583 -0.0590
vn -0.2798 0.9583 -0.0590
vn 0.9528 -0.3016 -0.0353
vn 0.9528 0.3016 -0.0353
vn -0.2893 0.9568 -0.0290
vn -0.2893 -0.9568 -0.0290
vn -0.2878 -0.7632 -0.5786
vn -0.2878 0.7632 -0.5786
vn 0.6828 0.3834 -0.6220
vn 0.6828 -0.3834 -0.6220
vn -0.8735 0.4594 -0.1611
vn -0.8735 -0.4594 -0.1611
vn 0.8735 -0.4594 -0.1611
vn 0.8735 0.4594 -0.1611
vn 0.7827 0.6055 0.1438
vn 0.7827 -0.6055 0.1438
vn -0.7827 -0.6055 0.1438
vn -0.7827 0.6055 0.1438
vn 0.2878 -0.7632 -0.5786
vn 0.2878 0.7632 -0.5786
vn -0.6828 0.3834 -0.6220
vn -0.6828 -0.3834 -0.6220
vn -0.3096 -0.3230 0.8943
vn -0.3096 0.3230 0.8943
vn 0.3096 -0.3230 0.8943
vn 0.3096 0.3230 0.8943
vn -0.1178 0.9718 0.2042
vn -0.1178 -0.9718 0.2042
vn 0.1178 -0.9718 0.2042
vn 0.1178 0.9718 0.2042
usemtl None
s off
f 98//1 29//1 4//1 42//1
f 97//2 32//2 8//2 45//2
f 96//3 35//3 6//3 48//3
f 95//4 38//4 2//4 28//4
f 94//5 46//5 5//5 37//5
f 93//6 41//6 2//6 38//6
f 92//7 51//7 20//7 50//7
f 91//8 52//8 21//8 53//8
f 90//9 29//9 11//9 54//9
f 89//10 55//10 19//10 49//10
f 88//11 56//11 22//11 57//11
f 87//12 34//12 16//12 58//12
f 86//13 59//13 10//13 40//13
f 60//14 84//14 104//14 99//14
f 84//15 50//15 20//15 62//15
f 83//16 63//16 18//16 36//16
f 82//17 64//17 24//17 65//17
f 81//18 47//18 17//18 66//18
f 80//19 67//19 15//19 33//19
f 79//20 68//20 25//20 69//20
f 78//21 44//21 14//21 70//21
f 77//22 71//22 12//22 30//22
f 76//23 72//23 26//23 73//23
f 75//24 41//24 11//24 74//24
f 72//25 75//25 74//25 26//25
f 10//26 28//26 75//26 72//26
f 28//27 2//27 41//27 75//27
f 27//28 76//28 73//28 9//28
f 1//29 40//29 76//29 27//29
f 40//30 10//30 72//30 76//30
f 39//31 77//31 30//31 3//31
f 9//32 73//32 77//32 39//32
f 73//33 26//33 71//33 77//33
f 68//34 78//34 70//34 25//34
f 12//35 42//35 78//35 68//35
f 42//36 4//36 44//36 78//36
f 31//37 79//37 69//37 13//37
f 3//38 30//38 79//38 31//38
f 30//39 12//39 68//39 79//39
f 43//40 80//40 33//40 7//40
f 13//41 69//41 80//41 43//41
f 69//42 25//42 67//42 80//42
f 64//43 81//43 66//43 24//43
f 15//44 45//44 81//44 64//44
f 45//45 8//45 47//45 81//45
f 34//46 82//46 65//46 16//46
f 7//47 33//47 82//47 34//47
f 33//48 15//48 64//48 82//48
f 46//49 83//49 36//49 5//49
f 16//50 65//50 83//50 46//50
f 65//51 24//51 63//51 83//51
f 95//52 59//52 102//52 107//52
f 18//53 48//53 84//53 60//53
f 48//54 6//54 50//54 84//54
f 37//55 85//55 61//55 19//55
f 5//56 36//56 85//56 37//56
f 36//57 18//57 60//57 85//57
f 49//58 86//58 40//58 1//58
f 19//59 61//59 86//59 49//59
f 61//60 85//60 105//60 103//60
f 56//61 87//61 58//61 22//61
f 13//62 43//62 87//62 56//62
f 43//63 7//63 34//63 87//63
f 39//64 88//64 57//64 9//64
f 3//65 31//65 88//65 39//65
f 31//66 13//66 56//66 88//66
f 27//67 89//67 49//67 1//67
f 9//68 57//68 89//68 27//68
f 57//69 22//69 55//69 89//69
f 52//70 90//70 54//70 21//70
f 14//71 44//71 90//71 52//71
f 44//72 4//72 29//72 90//72
f 47//73 91//73 53//73 17//73
f 8//74 32//74 91//74 47//74
f 32//75 14//75 52//75 91//75
f 35//76 92//76 50//76 6//76
f 17//77 53//77 92//77 35//77
f 53//78 21//78 51//78 92//78
f 51//79 93//79 38//79 20//79
f 21//80 54//80 93//80 51//80
f 54//81 11//81 41//81 93//81
f 55//82 94//82 37//82 19//82
f 22//83 58//83 94//83 55//83
f 58//84 16//84 46//84 94//84
f 59//85 95//85 28//85 10//85
f 62//86 95//86 107//86 101//86
f 62//87 20//87 38//87 95//87
f 63//88 96//88 48//88 18//88
f 24//89 66//89 96//89 63//89
f 66//90 17//90 35//90 96//90
f 67//91 97//91 45//91 15//91
f 25//92 70//92 97//92 67//92
f 70//93 14//93 32//93 97//93
f 71//94 98//94 42//94 12//94
f 26//95 74//95 98//95 71//95
f 74//96 11//96 29//96 98//96
f 99//97 104//97 112//97 23//97
f 105//98 99//98 23//98 113//98
f 102//99 106//99 114//99 110//99
f 107//100 102//100 110//100 115//100
f 59//101 86//101 106//101 102//101
f 84//102 62//102 101//102 104//102
f 86//103 61//103 103//103 106//103
f 85//104 60//104 99//104 105//104
f 110//105 114//105 121//105 117//105
f 115//106 110//106 117//106 122//106
f 112//107 109//107 116//107 119//107
f 111//108 113//108 120//108 118//108
f 101//109 107//109 115//109 109//109
f 106//110 103//110 111//110 114//110
f 103//111 105//111 113//111 111//111
f 104//112 101//112 109//112 112//112
f 119//113 116//113 124//113 127//113
f 118//114 120//114 128//114 126//114
f 121//115 118//115 126//115 129//115
f 116//116 122//116 130//116 124//116
f 113//117 23//117 100//117 120//117
f 23//118 112//118 119//118 100//118
f 109//119 115//119 122//119 116//119
f 114//120 111//120 118//120 121//120
f 129//121 126//121 134//121 137//121
f 124//122 130//122 138//122 132//122
f 108//123 127//123 135//123 131//123
f 128//124 108//124 131//124 136//124
f 122//125 117//125 125//125 130//125
f 117//126 121//126 129//126 125//126
f 120//127 100//127 108//127 128//127
f 100//128 119//128 127//128 108//128
f 131//129 135//129 143//129 123//129
f 136//130 131//130 123//130 144//130
f 133//131 137//131 145//131 141//131
f 138//132 133//132 141//132 146//132
f 126//133 128//133 136//133 134//133
f 127//134 124//134 132//134 135//134
f 130//135 125//135 133//135 138//135
f 125//136 129//136 137//136 133//136
f 144//137 123//137 139//137 142//137
f 123//138 143//138 140//138 139//138
f 142//139 139//139 141//139 145//139
f 139//140 140//140 146//140 141//140
f 132//141 138//141 146//141 140//141
f 137//142 134//142 142//142 145//142
f 134//143 136//143 144//143 142//143
f 135//144 132//144 140//144 143//144
