# Blender v2.79 (sub 0) OBJ File: 'Big_C_ANIM_05.blend'
# www.blender.org
mtllib Big_C_Cannon_01.mtl
o Canon_Cube
v -0.331934 1.412243 0.347335
v -0.331934 1.549096 0.348490
v -0.319612 1.429099 0.294782
v -0.319612 1.541307 0.295729
v -0.195077 1.412243 0.347335
v -0.195077 1.549096 0.348490
v -0.207399 1.429099 0.294782
v -0.207399 1.541307 0.295729
v -0.323068 1.420191 0.456215
v -0.323068 1.539312 0.457220
v -0.203943 1.539312 0.457220
v -0.203943 1.420191 0.456215
v -0.316250 1.425940 0.583009
v -0.316250 1.531425 0.583899
v -0.210761 1.531425 0.583899
v -0.210761 1.425940 0.583009
v -0.316250 1.425061 0.687210
v -0.316250 1.530545 0.688100
v -0.210761 1.530545 0.688100
v -0.210761 1.425061 0.687210
v -0.340864 1.399527 0.795966
v -0.340864 1.554240 0.797272
v -0.186147 1.554240 0.797272
v -0.186147 1.399527 0.795966
v -0.340864 1.398210 0.952058
v -0.317405 1.560785 0.975684
v -0.209606 1.560785 0.975684
v -0.186147 1.398210 0.952058
v -0.323068 1.415147 1.053940
v -0.307394 1.550292 1.032827
v -0.219617 1.550292 1.032827
v -0.203943 1.415147 1.053940
v -0.375096 1.480670 0.347912
v -0.355001 1.485203 0.295256
v -0.172010 1.485203 0.295256
v -0.151915 1.480670 0.347912
v -0.360637 1.479752 0.456718
v -0.166374 1.479752 0.456718
v -0.349518 1.478682 0.583454
v -0.177493 1.478682 0.583454
v -0.349518 1.477803 0.687655
v -0.177493 1.477803 0.687655
v -0.389659 1.476883 0.796619
v -0.137352 1.476883 0.796619
v -0.389659 1.475566 0.952711
v -0.137352 1.475566 0.952711
v -0.360637 1.474708 1.054443
v -0.166374 1.474708 1.054443
v -0.263505 1.394854 0.294494
v -0.263505 1.575553 0.296018
v -0.263505 1.370607 0.343566
v -0.263505 1.590863 0.348842
v -0.263505 1.382686 0.446576
v -0.263505 1.575668 0.457527
v -0.263505 1.393746 0.582737
v -0.263505 1.563618 0.584171
v -0.263505 1.392867 0.686938
v -0.263505 1.562739 0.688371
v -0.263505 1.352309 0.795568
v -0.263505 1.601457 0.797670
v -0.263505 1.350992 0.951660
v -0.263505 1.595314 0.976311
v -0.263505 1.378792 1.053634
v -0.263505 1.575450 1.032704
v -0.315045 1.479364 0.502649
v -0.354222 1.480790 0.230046
v -0.331827 1.485269 0.260050
v -0.305401 1.443374 0.259696
v -0.263505 1.417802 0.259480
v -0.263505 1.552735 0.260619
v -0.221610 1.527163 0.260403
v -0.195184 1.485269 0.260050
v -0.221610 1.443374 0.259696
v -0.305401 1.527163 0.260403
v -0.349115 1.474744 0.201392
v -0.319134 1.437312 0.229680
v -0.263505 1.401203 0.229375
v -0.263505 1.560377 0.230718
v -0.207877 1.524267 0.230413
v -0.172789 1.480790 0.230046
v -0.207877 1.437312 0.229680
v -0.319134 1.524267 0.230413
v -0.306366 1.476710 0.190467
v -0.316002 1.435762 0.204729
v -0.263505 1.411967 0.206766
v -0.263505 1.537520 0.196018
v -0.211009 1.513726 0.198055
v -0.177896 1.474744 0.201392
v -0.211009 1.435762 0.204729
v -0.316002 1.513726 0.198055
v -0.286834 1.472688 0.180216
v -0.289788 1.458086 0.191072
v -0.263505 1.446718 0.191441
v -0.263505 1.506701 0.189492
v -0.237223 1.495334 0.189861
v -0.220645 1.476710 0.190467
v -0.237223 1.458086 0.191072
v -0.289788 1.495334 0.189861
v -0.336194 1.474731 1.051627
v -0.277811 1.462623 0.181472
v -0.263505 1.456480 0.182238
v -0.263505 1.488895 0.178194
v -0.249200 1.482752 0.178961
v -0.240177 1.472688 0.180216
v -0.249200 1.462623 0.181472
v -0.277811 1.482752 0.178961
v -0.263505 1.471275 0.173868
v -0.308079 1.519304 1.052004
v -0.190817 1.474731 1.051627
v -0.218932 1.430159 1.051251
v -0.263505 1.402953 1.051022
v -0.263505 1.546510 1.052233
v -0.308079 1.430159 1.051251
v -0.218932 1.519304 1.052004
v -0.295110 1.510968 0.502915
v -0.211966 1.479364 0.502649
v -0.231900 1.447760 0.502382
v -0.263505 1.428469 0.502219
v -0.263505 1.530259 0.503078
v -0.295110 1.447760 0.502382
v -0.231900 1.510968 0.502915
v -0.263505 1.479853 0.444670
v -0.229291 1.391360 0.347159
v -0.250276 1.384216 0.447359
v -0.199510 1.416217 0.401775
v -0.327501 1.416217 0.401775
v -0.297720 1.391360 0.347159
v -0.276735 1.384216 0.447359
v -0.278033 1.281774 0.350877
v -0.295503 1.396687 0.401610
v -0.231508 1.396687 0.401610
v -0.283039 1.350975 0.352452
v -0.263505 1.338990 0.347651
v -0.269250 1.358048 0.403299
v -0.263505 1.352874 0.397885
v -0.284557 1.229495 0.344552
v -0.243972 1.350975 0.352452
v -0.257761 1.358048 0.403299
v -0.281773 1.354109 0.372556
v -0.245237 1.354109 0.372556
v -0.263505 1.275025 0.343964
v -0.276151 1.274984 0.380371
v -0.263505 1.270523 0.382771
v -0.248978 1.281774 0.350877
v -0.250860 1.274984 0.380371
v -0.277092 1.278379 0.365624
v -0.249919 1.278379 0.365624
v -0.263505 1.218876 0.336584
v -0.281829 1.215685 0.396971
v -0.263505 1.212872 0.403423
v -0.263505 1.211097 0.367116
v -0.242454 1.229495 0.344552
v -0.245182 1.215685 0.396971
v -0.283193 1.222214 0.371677
v -0.243818 1.222214 0.371677
v -0.263505 1.600140 0.953762
v -0.340864 1.552922 0.953364
v -0.263505 1.570624 1.055252
v -0.323068 1.534268 1.054945
v -0.203943 1.534268 1.054945
v -0.186147 1.552922 0.953364
v -0.263505 1.606236 1.007289
v -0.263505 1.601297 1.038799
v -0.286314 1.591625 1.007024
v -0.282078 1.587184 1.031205
v -0.244933 1.587184 1.031205
v -0.240697 1.591625 1.007024
v -0.263505 1.640687 1.029430
v -0.263505 1.640744 1.061036
v -0.273534 1.632095 1.030345
v -0.271671 1.627655 1.054526
v -0.255340 1.627655 1.054526
v -0.253477 1.632095 1.030345
v -0.293287 1.402013 0.456062
v -0.263505 1.383836 0.455908
v -0.233724 1.402013 0.456062
v -0.280508 1.357242 0.392660
v -0.263505 1.358639 0.404074
v -0.246503 1.357242 0.392660
v -0.263505 1.374255 0.418019
v -0.263505 1.382114 0.426607
v -0.266692 1.381846 0.426790
v -0.260319 1.381846 0.426790
v -0.267828 1.375529 0.417844
v -0.259183 1.375529 0.417844
v -0.263556 1.359734 0.420936
v -0.263556 1.368758 0.429534
v -0.268223 1.367325 0.429708
v -0.258889 1.367325 0.429708
v -0.265583 1.361008 0.420762
v -0.261530 1.361008 0.420762
v -0.263556 1.343440 0.431444
v -0.263556 1.349515 0.440017
v -0.268223 1.351031 0.440215
v -0.258889 1.351031 0.440215
v -0.265583 1.344714 0.431269
v -0.261530 1.344714 0.431269
v -0.263556 1.334461 0.445149
v -0.263556 1.338775 0.451237
v -0.266870 1.339852 0.451378
v -0.260242 1.339852 0.451378
v -0.264995 1.335366 0.445025
v -0.262117 1.335366 0.445025
vn -0.8142 0.5158 -0.2663
vn -0.4567 -0.7441 -0.4877
vn 0.8142 0.5158 -0.2663
vn -0.5178 0.8473 0.1185
vn 0.4918 -0.7873 -0.3718
vn -0.5048 0.8291 -0.2403
vn -0.5196 0.8506 0.0809
vn 0.8405 0.5292 0.1162
vn -0.8405 -0.5311 0.1072
vn 0.5178 -0.8492 0.1041
vn 0.5210 -0.8535 -0.0072
vn 0.8435 0.5314 0.0785
vn 0.5196 -0.8518 0.0666
vn -0.8435 -0.5326 0.0695
vn 0.4976 -0.8126 -0.3034
vn -0.8458 -0.5335 -0.0045
vn -0.5210 0.8535 0.0072
vn 0.8458 0.5335 0.0045
vn -0.8075 -0.5068 -0.3018
vn -0.4976 0.8176 -0.2896
vn 0.8075 0.5118 -0.2932
vn 0.5066 -0.8318 0.2268
vn 0.0705 -0.1239 0.9898
vn -0.8222 -0.5206 0.2302
vn -0.5147 0.8086 -0.2851
vn 0.8222 0.5166 0.2389
vn 0.8222 -0.5206 0.2302
vn -0.8222 0.5166 0.2389
vn 0.1141 -0.0804 0.9902
vn -0.8458 0.5335 0.0045
vn 0.8458 -0.5335 -0.0045
vn 0.8075 -0.5068 -0.3018
vn -0.8075 0.5118 -0.2932
vn -0.8435 0.5314 0.0785
vn 0.8435 -0.5326 0.0695
vn -0.8405 0.5292 0.1162
vn 0.8405 -0.5311 0.1072
vn 0.7948 -0.4984 -0.3462
vn 0.4567 -0.7441 -0.4877
vn -0.7948 -0.4984 -0.3462
vn 0.7401 -0.4627 -0.4880
vn 0.1141 0.0636 0.9914
vn -0.7952 0.5563 0.2415
vn -0.0705 -0.1239 0.9898
vn -0.5210 -0.8535 -0.0072
vn -0.5066 -0.8318 0.2268
vn 0.4976 0.8176 -0.2896
vn 0.5210 0.8535 0.0072
vn -0.4976 -0.8126 -0.3034
vn -0.5196 -0.8518 0.0666
vn 0.9247 -0.3709 0.0853
vn 0.5196 0.8506 0.0809
vn 0.5048 0.8291 -0.2403
vn -0.4918 -0.7873 -0.3718
vn 0.5178 0.8473 0.1185
vn -0.7379 0.4695 -0.4848
vn 0.5259 0.8299 0.1863
vn -0.7501 0.5372 0.3857
vn -0.5259 0.8299 0.1863
vn -0.4876 -0.7744 0.4033
vn 0.7379 0.4695 -0.4848
vn -0.4545 0.7487 -0.4826
vn 0.4545 0.7487 -0.4826
vn -0.7401 -0.4627 -0.4880
vn -0.4727 -0.8588 -0.1975
vn 0.7698 -0.6377 -0.0279
vn 0.7474 0.6086 -0.2664
vn 0.4727 -0.8588 -0.1975
vn -0.6967 -0.5063 0.5083
vn 0.4876 -0.7744 0.4033
vn 0.7501 0.5372 0.3857
vn 0.6967 -0.5063 0.5083
vn 0.2344 0.1363 -0.9625
vn 0.1477 -0.3930 -0.9076
vn -0.2379 -0.2691 -0.9333
vn 0.1281 0.2209 -0.9668
vn -0.4459 0.7927 -0.4156
vn -0.7474 0.6086 -0.2664
vn 0.4459 0.7927 -0.4156
vn -0.7698 -0.6377 -0.0279
vn -0.4664 -0.4650 -0.7525
vn 0.2424 0.5082 -0.8264
vn -0.4111 0.3113 -0.8568
vn -0.2424 0.5082 -0.8264
vn 0.2379 -0.2691 -0.9333
vn -0.1477 -0.3930 -0.9076
vn -0.1281 0.2209 -0.9668
vn -0.2344 0.1363 -0.9625
vn 0.2039 0.1733 -0.9635
vn 0.2150 -0.4195 -0.8819
vn -0.2150 -0.4195 -0.8819
vn -0.2039 0.1733 -0.9635
vn 0.2719 -0.6746 -0.6863
vn 0.4111 0.3113 -0.8568
vn 0.4664 -0.4650 -0.7524
vn -0.2719 -0.6746 -0.6863
vn -0.8454 0.5329 0.0371
vn 0.5207 -0.8533 0.0253
vn -0.8454 -0.5335 0.0281
vn 0.5207 0.8528 0.0397
vn -0.1141 -0.0804 0.9902
vn -0.1141 0.0636 0.9914
vn 0.0705 0.1072 0.9917
vn -0.0705 0.1072 0.9917
vn 0.5565 -0.5687 0.6057
vn 0.5565 0.5584 0.6153
vn -0.5565 0.5584 0.6153
vn -0.5565 -0.5687 0.6057
vn -0.5207 -0.8533 0.0253
vn 0.8454 0.5329 0.0371
vn -0.5207 0.8528 0.0397
vn 0.8454 -0.5335 0.0281
vn -0.5178 -0.8492 0.1041
vn -0.2556 -0.1759 -0.9506
vn -0.9353 -0.3440 0.0827
vn 0.8039 -0.4593 0.3778
vn 0.9959 -0.0646 0.0626
vn -0.3124 0.0258 -0.9496
vn 0.2914 -0.1646 0.9424
vn -0.9959 -0.0646 0.0626
vn 0.2556 -0.1759 -0.9506
vn -0.9247 -0.3709 0.0853
vn 0.9353 -0.3440 0.0827
vn 0.1149 -0.6452 0.7553
vn 0.1944 0.3063 0.9319
vn -0.9893 0.1178 0.0862
vn 0.9898 0.1150 0.0838
vn -0.1944 0.3063 0.9319
vn -0.9956 -0.0702 0.0625
vn 0.3124 0.0258 -0.9496
vn -0.2914 -0.1646 0.9424
vn 0.9956 -0.0702 0.0625
vn -0.3405 -0.9380 -0.0649
vn -0.5093 -0.8355 -0.2062
vn 0.3405 -0.9380 -0.0649
vn 0.5093 -0.8355 -0.2062
vn -0.3242 0.1378 -0.9359
vn 0.9893 0.1178 0.0862
vn -0.9898 0.1150 0.0838
vn 0.3242 0.1378 -0.9359
vn -0.5175 0.8283 0.2145
vn -0.4993 0.8390 0.2164
vn -0.5066 0.8279 0.2408
vn 0.5066 0.8279 0.2408
vn 0.5175 0.8283 0.2145
vn 0.4993 0.8390 0.2164
vn -0.0523 -0.4997 0.8646
vn -0.3865 0.5257 -0.7578
vn 0.0997 -0.0307 0.9945
vn 0.7952 0.5563 0.2415
vn -0.0997 -0.0307 0.9945
vn 0.5147 0.8086 -0.2851
vn -0.7733 0.6295 0.0753
vn 0.7733 0.6295 0.0753
vn 0.9697 0.1875 0.1567
vn 0.0523 -0.4997 0.8646
vn 0.3865 0.5257 -0.7578
vn -0.9697 0.1875 0.1567
vn -0.3500 -0.7880 0.5066
vn 0.3500 -0.7880 0.5066
vn -0.4959 -0.7648 0.4113
vn -0.2687 -0.8227 0.5010
vn 0.2687 -0.8227 0.5010
vn 0.4959 -0.7648 0.4113
vn -0.9976 -0.0363 -0.0583
vn 0.0259 -0.1990 -0.9797
vn -0.0734 -0.9958 0.0541
vn -0.8039 -0.4593 0.3778
vn -0.1149 -0.6452 0.7553
vn 0.0734 -0.9958 0.0541
vn -0.2591 -0.5234 -0.8117
vn 0.9721 -0.1271 -0.1972
vn -0.0000 0.2052 0.9787
vn 0.9976 -0.0424 -0.0540
vn -0.0259 -0.1988 -0.9797
vn -0.9647 -0.2352 -0.1186
vn 0.4317 -0.7545 -0.4943
vn -0.0388 0.5082 0.8604
vn 0.2591 -0.5234 -0.8117
vn -0.9721 -0.1271 -0.1972
vn 0.0388 0.5082 0.8604
vn -0.3290 -0.7936 0.5118
vn 0.3290 -0.7936 0.5118
vn 0.2553 0.6985 0.6686
vn 0.9647 -0.2352 -0.1186
vn -0.4317 -0.7545 -0.4943
vn -0.2553 0.6985 0.6686
usemtl None
s off
f 33//1 2//1 4//1 34//1
f 49//2 3//2 68//2 69//2
f 35//3 8//3 6//3 36//3
f 52//4 2//4 10//4 54//4
f 49//5 7//5 5//5 123//5 51//5
f 50//6 4//6 2//6 52//6
f 54//7 10//7 14//7 56//7
f 36//8 6//8 11//8 38//8
f 33//9 1//9 126//9 9//9 37//9
f 131//10 125//10 12//10 176//10
f 55//11 16//11 20//11 57//11
f 38//12 11//12 15//12 40//12
f 175//13 176//13 12//13 16//13 55//13
f 37//14 9//14 13//14 39//14
f 57//15 20//15 24//15 59//15
f 39//16 13//16 17//16 41//16
f 56//17 14//17 18//17 58//17
f 40//18 15//18 19//18 42//18
f 60//17 22//17 157//17 156//17
f 41//19 17//19 21//19 43//19
f 58//20 18//20 22//20 60//20
f 42//21 19//21 23//21 44//21
f 61//22 28//22 32//22 63//22
f 44//18 23//18 161//18 46//18
f 59//11 24//11 28//11 61//11
f 43//16 21//16 25//16 45//16
f 158//23 159//23 108//23 112//23
f 45//24 25//24 29//24 47//24
f 62//25 26//25 164//25 162//25
f 46//26 161//26 160//26 48//26
f 28//27 46//27 48//27 32//27
f 157//28 45//28 47//28 159//28
f 159//29 47//29 99//29 108//29
f 22//30 43//30 45//30 157//30
f 24//31 44//31 46//31 28//31
f 20//32 42//32 44//32 24//32
f 18//33 41//33 43//33 22//33
f 16//31 40//31 42//31 20//31
f 14//30 39//30 41//30 18//30
f 10//34 37//34 39//34 14//34
f 12//35 38//35 40//35 16//35
f 2//36 33//36 37//36 10//36
f 5//37 36//37 38//37 12//37 125//37
f 7//38 35//38 36//38 5//38
f 7//39 49//39 69//39 73//39
f 1//40 33//40 34//40 3//40
f 35//41 7//41 73//41 72//41
f 47//42 29//42 113//42 99//42
f 26//43 30//43 165//43 164//43
f 160//44 158//44 112//44 114//44
f 21//45 59//45 61//45 25//45
f 25//46 61//46 63//46 29//46
f 19//47 58//47 60//47 23//47
f 23//48 60//48 156//48 161//48
f 15//48 56//48 58//48 19//48
f 17//49 57//49 59//49 21//49
f 9//50 174//50 175//50 55//50 13//50
f 13//45 55//45 57//45 17//45
f 131//51 176//51 179//51 140//51
f 11//52 54//52 56//52 15//52
f 8//53 50//53 52//53 6//53
f 3//54 49//54 51//54 127//54 1//54
f 6//55 52//55 54//55 11//55
f 34//56 4//56 74//56 67//56
f 70//57 71//57 79//57 78//57
f 67//58 74//58 82//58 66//58
f 74//59 70//59 78//59 82//59
f 69//60 68//60 76//60 77//60
f 8//61 35//61 72//61 71//61
f 4//62 50//62 70//62 74//62
f 50//63 8//63 71//63 70//63
f 3//64 34//64 67//64 68//64
f 77//65 76//65 84//65 85//65
f 80//66 81//66 89//66 88//66
f 79//67 80//67 88//67 87//67
f 81//68 77//68 85//68 89//68
f 68//69 67//69 66//69 76//69
f 73//70 69//70 77//70 81//70
f 71//71 72//71 80//71 79//71
f 72//72 73//72 81//72 80//72
f 87//73 88//73 96//73 95//73
f 89//74 85//74 93//74 97//74
f 84//75 75//75 83//75 92//75
f 86//76 87//76 95//76 94//76
f 82//77 78//77 86//77 90//77
f 66//78 82//78 90//78 75//78
f 78//79 79//79 87//79 86//79
f 76//80 66//80 75//80 84//80
f 92//81 83//81 91//81 100//81
f 94//82 95//82 103//82 102//82
f 83//83 98//83 106//83 91//83
f 98//84 94//84 102//84 106//84
f 88//85 89//85 97//85 96//85
f 85//86 84//86 92//86 93//86
f 90//87 86//87 94//87 98//87
f 75//88 90//88 98//88 83//88
f 107//89 102//89 103//89 104//89
f 101//90 107//90 104//90 105//90
f 100//91 91//91 107//91 101//91
f 91//92 106//92 102//92 107//92
f 97//93 93//93 101//93 105//93
f 95//94 96//94 104//94 103//94
f 96//95 97//95 105//95 104//95
f 93//96 92//96 100//96 101//96
f 110//97 109//97 116//97 117//97
f 112//98 108//98 115//98 119//98
f 109//99 114//99 121//99 116//99
f 113//100 111//100 118//100 120//100
f 48//101 160//101 114//101 109//101
f 32//102 48//102 109//102 110//102
f 29//103 63//103 111//103 113//103
f 63//104 32//104 110//104 111//104
f 122//105 119//105 115//105 65//105
f 118//106 122//106 65//106 120//106
f 117//107 116//107 122//107 118//107
f 116//108 121//108 119//108 122//108
f 114//109 112//109 119//109 121//109
f 99//110 113//110 120//110 65//110
f 111//111 110//111 117//111 118//111
f 108//112 99//112 65//112 115//112
f 126//113 130//113 174//113 9//113
f 1//113 127//113 130//113 126//113
f 127//114 51//114 133//114 132//114
f 130//115 127//115 132//115 139//115
f 128//116 134//116 184//116 182//116
f 123//10 5//10 125//10 131//10
f 140//117 179//117 145//117 147//117
f 132//118 133//118 141//118 129//118
f 179//119 135//119 143//119 145//119
f 177//120 139//120 146//120 142//120
f 51//121 123//121 137//121 133//121
f 174//122 130//122 139//122 177//122
f 123//123 131//123 140//123 137//123
f 178//124 138//124 185//124 180//124
f 145//125 143//125 150//125 153//125
f 142//126 146//126 154//126 149//126
f 144//127 147//127 155//127 152//127
f 143//128 142//128 149//128 150//128
f 139//129 132//129 129//129 146//129
f 133//130 137//130 144//130 141//130
f 135//131 177//131 142//131 143//131
f 137//132 140//132 147//132 144//132
f 154//133 151//133 150//133 149//133
f 136//134 148//134 151//134 154//134
f 151//135 155//135 153//135 150//135
f 148//136 152//136 155//136 151//136
f 129//137 141//137 148//137 136//137
f 147//138 145//138 153//138 155//138
f 146//139 129//139 136//139 154//139
f 141//140 144//140 152//140 148//140
f 26//141 62//141 156//141 157//141
f 64//142 30//142 159//142 158//142
f 30//143 26//143 157//143 159//143
f 27//144 31//144 160//144 161//144
f 62//145 27//145 161//145 156//145
f 31//146 64//146 158//146 160//146
f 163//147 166//147 172//147 169//147
f 162//148 164//148 170//148 168//148
f 64//149 31//149 166//149 163//149
f 31//150 27//150 167//150 166//150
f 30//151 64//151 163//151 165//151
f 27//152 62//152 162//152 167//152
f 168//153 170//153 171//153 169//153
f 173//154 168//154 169//154 172//154
f 166//155 167//155 173//155 172//155
f 165//156 163//156 169//156 171//156
f 167//157 162//157 168//157 173//157
f 164//158 165//158 171//158 170//158
f 128//159 53//159 175//159 174//159
f 53//160 124//160 176//160 175//160
f 134//161 128//161 174//161 177//161
f 178//162 134//162 177//162 135//162
f 138//163 178//163 135//163 179//163
f 124//164 138//164 179//164 176//164
f 182//165 184//165 190//165 188//165
f 180//166 185//166 191//166 186//166
f 53//167 128//167 182//167 181//167
f 138//168 124//168 183//168 185//168
f 134//169 178//169 180//169 184//169
f 124//170 53//170 181//170 183//170
f 190//171 186//171 192//171 196//171
f 191//172 189//172 195//172 197//172
f 181//173 182//173 188//173 187//173
f 185//174 183//174 189//174 191//174
f 184//175 180//175 186//175 190//175
f 183//173 181//173 187//173 189//173
f 194//176 196//176 202//176 200//176
f 192//177 197//177 203//177 198//177
f 189//178 187//178 193//178 195//178
f 186//179 191//179 197//179 192//179
f 188//180 190//180 196//180 194//180
f 187//181 188//181 194//181 193//181
f 199//182 200//182 202//182 198//182
f 201//183 199//183 198//183 203//183
f 193//184 194//184 200//184 199//184
f 197//185 195//185 201//185 203//185
f 196//186 192//186 198//186 202//186
f 195//187 193//187 199//187 201//187
