# Blender v2.79 (sub 0) OBJ File: 'Ground.blend'
# www.blender.org
mtllib Ground.mtl
o Ground_Cube
v 10.771246 -50.000000 -1.000000
v 10.771246 -50.000000 1.000000
v -11.228755 -50.000000 1.000000
v -11.228750 -50.000000 -1.000000
v 10.771252 50.000000 -0.999999
v 10.771238 50.000000 1.000001
v -11.228758 50.000000 1.000000
v -11.228753 50.000000 -1.000000
v 10.771249 0.000000 -1.000000
v 10.771242 0.000000 1.000000
v -11.228758 0.000000 1.000000
v -11.228753 0.000000 -1.000000
v 10.771250 25.000000 -1.000000
v 10.771240 25.000000 1.000000
v -11.228758 25.000000 1.000000
v -11.228753 25.000000 -1.000000
v 10.771247 -25.000000 -1.000000
v 10.771244 -25.000000 1.000000
v -11.228758 -25.000000 1.000000
v -11.228750 -25.000000 -1.000000
v 10.771249 -12.500000 -1.000000
v 10.771243 -12.500000 1.000000
v -11.228758 -12.500000 1.000000
v -11.228753 -12.500000 -1.000000
v 10.771249 12.500000 -1.000000
v 10.771241 12.500000 1.000000
v -11.228758 12.500000 1.000000
v -11.228753 12.500000 -1.000000
v 10.771252 37.500000 -1.000000
v 10.771239 37.500000 1.000000
v -11.228758 37.500000 1.000000
v -11.228753 37.500000 -1.000000
v 10.771246 -37.500000 -1.000000
v 10.771245 -37.500000 1.000000
v -11.228758 -37.500000 1.000000
v -11.228750 -37.500000 -1.000000
v -0.228753 -50.000000 -1.000000
v -0.228754 -50.000000 1.000000
v -0.228751 50.000000 -1.000000
v -0.228761 50.000000 1.000000
v -0.228751 0.000000 -1.000000
v -0.228758 0.000000 1.000000
v -0.228751 25.000000 -1.000000
v -0.228758 25.000000 1.000000
v -0.228755 -25.000000 1.000000
v -0.228751 -25.000000 -1.000000
v -0.228751 -12.500000 -1.000000
v -0.228757 -12.500000 1.000000
v -0.228758 12.500000 1.000000
v -0.228751 12.500000 -1.000000
v -0.228751 37.500000 -1.000000
v -0.228758 37.500000 1.000000
v -0.228755 -37.500000 1.000000
v -0.228753 -37.500000 -1.000000
v -5.728750 -50.000000 -1.000000
v -5.728755 -50.000000 1.000000
v -5.728753 50.000000 -1.000000
v -5.728758 50.000000 1.000000
v -5.728753 0.000000 -1.000000
v -5.728758 0.000000 1.000000
v -5.728753 25.000000 -1.000000
v -5.728758 25.000000 1.000000
v -5.728755 -25.000000 1.000000
v -5.728750 -25.000000 -1.000000
v -5.728753 -12.500000 -1.000000
v -5.728758 -12.500000 1.000000
v -5.728758 12.500000 1.000000
v -5.728753 12.500000 -1.000000
v -5.728753 37.500000 -1.000000
v -5.728758 37.500000 1.000000
v -5.728755 -37.500000 1.000000
v -5.728750 -37.500000 -1.000000
v 5.271247 -50.000000 -1.000000
v 5.271246 -50.000000 1.000000
v 5.271250 50.000000 -1.000000
v 5.271239 50.000000 1.000000
v 5.271249 0.000000 -1.000000
v 5.271242 0.000000 1.000000
v 5.271250 25.000000 -1.000000
v 5.271242 25.000000 1.000000
v 5.271245 -25.000000 1.000000
v 5.271247 -25.000000 -1.000000
v 5.271249 -12.500000 -1.000000
v 5.271243 -12.500000 1.000000
v 5.271242 12.500000 1.000000
v 5.271249 12.500000 -1.000000
v 5.271250 37.500000 -1.000000
v 5.271241 37.500000 1.000000
v 5.271245 -37.500000 1.000000
v 5.271247 -37.500000 -1.000000
v 10.771252 43.750000 -1.000000
v 10.771239 43.750000 1.000000
v -11.228758 43.750000 1.000000
v -11.228753 43.750000 -1.000000
v -0.228751 43.750000 -1.000000
v -0.228759 43.750000 1.000000
v -5.728753 43.750000 -1.000000
v -5.728758 43.750000 1.000000
v 5.271239 43.750000 1.000000
v 5.271250 43.750000 -1.000000
v 10.771252 31.250000 -1.000000
v 10.771240 31.250000 1.000000
v -11.228758 31.250000 1.000000
v -11.228753 31.250000 -1.000000
v -0.228758 31.250000 1.000000
v -0.228751 31.250000 -1.000000
v -5.728758 31.250000 1.000000
v -5.728753 31.250000 -1.000000
v 5.271250 31.250000 -1.000000
v 5.271241 31.250000 1.000000
v 10.771249 18.750000 -1.000000
v 10.771240 18.750000 1.000000
v -11.228758 18.750000 1.000000
v -11.228753 18.750000 -1.000000
v -0.228751 18.750000 -1.000000
v -0.228758 18.750000 1.000000
v -5.728753 18.750000 -1.000000
v -5.728758 18.750000 1.000000
v 5.271242 18.750000 1.000000
v 5.271249 18.750000 -1.000000
v 10.771249 6.250000 -1.000000
v 10.771242 6.250000 1.000000
v -11.228758 6.250000 1.000000
v -11.228753 6.250000 -1.000000
v -0.228758 6.250000 1.000000
v -0.228751 6.250000 -1.000000
v -5.728758 6.250000 1.000000
v -5.728753 6.250000 -1.000000
v 5.271249 6.250000 -1.000000
v 5.271242 6.250000 1.000000
v 10.771249 -6.250000 -1.000000
v 10.771243 -6.250000 1.000000
v -11.228758 -6.250000 1.000000
v -11.228753 -6.250000 -1.000000
v -0.228751 -6.250000 -1.000000
v -0.228757 -6.250000 1.000000
v -5.728753 -6.250000 -1.000000
v -5.728758 -6.250000 1.000000
v 5.271242 -6.250000 1.000000
v 5.271249 -6.250000 -1.000000
v 10.771249 -18.750000 -1.000000
v 10.771243 -18.750000 1.000000
v -11.228758 -18.750000 1.000000
v -11.228753 -18.750000 -1.000000
v -0.228757 -18.750000 1.000000
v -0.228751 -18.750000 -1.000000
v -5.728758 -18.750000 1.000000
v -5.728753 -18.750000 -1.000000
v 5.271249 -18.750000 -1.000000
v 5.271243 -18.750000 1.000000
v 10.771246 -31.250000 -1.000000
v 10.771245 -31.250000 1.000000
v -11.228758 -31.250000 1.000000
v -11.228750 -31.250000 -1.000000
v -0.228751 -31.250000 -1.000000
v -0.228755 -31.250000 1.000000
v -5.728750 -31.250000 -1.000000
v -5.728755 -31.250000 1.000000
v 5.271245 -31.250000 1.000000
v 5.271247 -31.250000 -1.000000
v 10.771246 -43.750000 -1.000000
v 10.771245 -43.750000 1.000000
v -11.228758 -43.750000 1.000000
v -11.228750 -43.750000 -1.000000
v -0.228755 -43.750000 1.000000
v -0.228753 -43.750000 -1.000000
v -5.728755 -43.750000 1.000000
v -5.728750 -43.750000 -1.000000
v 5.271247 -43.750000 -1.000000
v 5.271245 -43.750000 1.000000
vt 0.379181 0.789492
vt 0.379181 0.860727
vt 0.311571 0.860727
vt 0.311571 0.789492
vt 0.379233 0.860727
vt 0.311622 0.860727
vt 0.311622 0.789492
vt 0.379233 0.789492
vt 0.288844 0.930132
vt 0.288844 0.991795
vt 0.220337 0.991795
vt 0.220337 0.930132
vt 0.710847 0.930084
vt 0.710847 0.991761
vt 0.618913 0.991761
vt 0.618913 0.930084
vt 0.220219 0.066676
vt 0.220219 0.005013
vt 0.289166 0.005014
vt 0.289166 0.066678
vt 0.895416 0.066594
vt 0.895416 0.004916
vt 0.987350 0.004917
vt 0.987350 0.066594
vt 0.895416 0.560015
vt 0.895416 0.498338
vt 0.987350 0.498338
vt 0.987350 0.560015
vt 0.220219 0.559983
vt 0.220219 0.498320
vt 0.289166 0.498322
vt 0.289166 0.559985
vt 0.710847 0.436662
vt 0.710847 0.498340
vt 0.618913 0.498340
vt 0.618913 0.436662
vt 0.288844 0.436825
vt 0.288844 0.498489
vt 0.220337 0.498489
vt 0.220337 0.436826
vt 0.895416 0.806726
vt 0.895416 0.745049
vt 0.987350 0.745048
vt 0.987350 0.806726
vt 0.220219 0.313330
vt 0.220219 0.251666
vt 0.289166 0.251669
vt 0.289166 0.313333
vt 0.710847 0.683373
vt 0.710847 0.745051
vt 0.618913 0.745051
vt 0.618913 0.683373
vt 0.288844 0.683479
vt 0.288844 0.745142
vt 0.220337 0.745143
vt 0.220337 0.683480
vt 0.288844 0.190172
vt 0.288844 0.251835
vt 0.220337 0.251836
vt 0.220337 0.190173
vt 0.710847 0.189951
vt 0.710847 0.251629
vt 0.618913 0.251629
vt 0.618913 0.189952
vt 0.220219 0.806637
vt 0.220219 0.744973
vt 0.289166 0.744974
vt 0.289166 0.806637
vt 0.895416 0.313305
vt 0.895416 0.251627
vt 0.987350 0.251627
vt 0.987350 0.313305
vt 0.895416 0.436660
vt 0.895416 0.374982
vt 0.987350 0.374982
vt 0.987350 0.436660
vt 0.288844 0.313499
vt 0.288844 0.375162
vt 0.220337 0.375163
vt 0.220337 0.313500
vt 0.710847 0.313306
vt 0.710847 0.374984
vt 0.618913 0.374985
vt 0.618913 0.313307
vt 0.220219 0.683310
vt 0.220219 0.621647
vt 0.289166 0.621648
vt 0.289166 0.683311
vt 0.288844 0.560152
vt 0.288844 0.621816
vt 0.220337 0.621817
vt 0.220337 0.560153
vt 0.710847 0.560017
vt 0.710847 0.621695
vt 0.618913 0.621695
vt 0.618913 0.560018
vt 0.220219 0.436656
vt 0.220219 0.374993
vt 0.289166 0.374995
vt 0.289166 0.436659
vt 0.895416 0.683371
vt 0.895416 0.621693
vt 0.987350 0.621693
vt 0.987350 0.683371
vt 0.895416 0.930082
vt 0.895416 0.868404
vt 0.987350 0.868404
vt 0.987350 0.930081
vt 0.220219 0.190003
vt 0.220219 0.128340
vt 0.289166 0.128342
vt 0.289166 0.190006
vt 0.710847 0.806728
vt 0.710847 0.868406
vt 0.618913 0.868406
vt 0.618913 0.806729
vt 0.288844 0.806805
vt 0.288844 0.868469
vt 0.220337 0.868469
vt 0.220337 0.806806
vt 0.220219 0.929964
vt 0.220219 0.868300
vt 0.289166 0.868301
vt 0.289166 0.929964
vt 0.710846 0.066596
vt 0.710847 0.128273
vt 0.618912 0.128274
vt 0.618912 0.066596
vt 0.288844 0.066845
vt 0.288844 0.128509
vt 0.220337 0.128509
vt 0.220337 0.066845
vt 0.895416 0.189949
vt 0.895416 0.128271
vt 0.987350 0.128272
vt 0.987350 0.189949
vt 0.711548 0.189949
vt 0.711548 0.128271
vt 0.803482 0.128271
vt 0.803482 0.189949
vt 0.894715 0.066594
vt 0.894715 0.128272
vt 0.802781 0.128273
vt 0.802781 0.066595
vt 0.894716 0.806728
vt 0.894716 0.868406
vt 0.802781 0.868406
vt 0.802781 0.806728
vt 0.711548 0.930083
vt 0.711548 0.868405
vt 0.803482 0.868405
vt 0.803482 0.930082
vt 0.711548 0.683371
vt 0.711548 0.621694
vt 0.803482 0.621693
vt 0.803482 0.683371
vt 0.894715 0.560017
vt 0.894715 0.621694
vt 0.802781 0.621695
vt 0.802781 0.560017
vt 0.894715 0.313305
vt 0.894715 0.374983
vt 0.802781 0.374984
vt 0.802781 0.313306
vt 0.711548 0.436660
vt 0.711548 0.374982
vt 0.803482 0.374982
vt 0.803482 0.436660
vt 0.711548 0.313304
vt 0.711548 0.251626
vt 0.803482 0.251627
vt 0.803482 0.313304
vt 0.894715 0.189950
vt 0.894715 0.251627
vt 0.802781 0.251628
vt 0.802781 0.189950
vt 0.894716 0.683372
vt 0.894716 0.745050
vt 0.802781 0.745050
vt 0.802781 0.683372
vt 0.711548 0.806727
vt 0.711548 0.745049
vt 0.803482 0.745049
vt 0.803482 0.806727
vt 0.894715 0.436661
vt 0.894715 0.498339
vt 0.802781 0.498339
vt 0.802781 0.436661
vt 0.711548 0.560016
vt 0.711548 0.498338
vt 0.803482 0.498338
vt 0.803482 0.560015
vt 0.711548 0.066593
vt 0.711548 0.004915
vt 0.803482 0.004915
vt 0.803482 0.066593
vt 0.894716 0.930084
vt 0.894716 0.991761
vt 0.802781 0.991761
vt 0.802781 0.930084
vt 0.514454 0.860727
vt 0.446844 0.860727
vt 0.446843 0.789492
vt 0.514454 0.789492
vt 0.514402 0.789492
vt 0.514402 0.860727
vt 0.446792 0.860727
vt 0.446792 0.789492
vt 0.582013 0.789492
vt 0.582013 0.860727
vt 0.582065 0.860727
vt 0.582064 0.789492
vt 0.986650 0.930084
vt 0.986650 0.991761
vt 0.619613 0.066593
vt 0.619613 0.004915
vt 0.619613 0.560016
vt 0.619613 0.498338
vt 0.986650 0.436660
vt 0.986650 0.498338
vt 0.619613 0.806728
vt 0.619613 0.745050
vt 0.986650 0.683372
vt 0.986650 0.745050
vt 0.986649 0.189949
vt 0.986650 0.251627
vt 0.619613 0.313304
vt 0.619613 0.251626
vt 0.619613 0.436660
vt 0.619613 0.374982
vt 0.986650 0.313305
vt 0.986650 0.374982
vt 0.986650 0.560016
vt 0.986650 0.621694
vt 0.619613 0.683372
vt 0.619613 0.621694
vt 0.619613 0.930083
vt 0.619613 0.868405
vt 0.986650 0.806728
vt 0.986650 0.868406
vt 0.986649 0.066593
vt 0.986649 0.128271
vt 0.619613 0.189949
vt 0.619613 0.128271
vt 0.619614 0.991761
vt 0.711548 0.991760
vt 0.803482 0.991760
vt 0.895416 0.991759
vt 0.987350 0.991759
vt 0.986649 0.004915
vt 0.894715 0.004916
vt 0.802781 0.004917
vt 0.710846 0.004918
vt 0.288844 0.005182
vt 0.220337 0.005181
vt 0.618912 0.004919
vt 0.220219 0.991627
vt 0.289166 0.991627
vn 0.0000 -1.0000 -0.0000
vn 0.0000 1.0000 0.0000
vn 1.0000 0.0000 0.0000
vn -0.0000 0.0000 1.0000
vn -1.0000 0.0000 -0.0000
vn 0.0000 0.0000 -1.0000
usemtl Material
s off
f 55/1/1 56/2/1 3/3/1 4/4/1
f 57/5/2 8/6/2 7/7/2 58/8/2
f 91/9/3 5/10/3 6/11/3 92/12/3
f 98/13/4 58/14/4 7/15/4 93/16/4
f 93/17/5 7/18/5 8/19/5 94/20/5
f 168/21/6 55/22/6 4/23/6 164/24/6
f 128/25/6 59/26/6 12/27/6 124/28/6
f 133/29/5 11/30/5 12/31/5 134/32/5
f 138/33/4 60/34/4 11/35/4 133/36/4
f 131/37/3 9/38/3 10/39/3 132/40/3
f 108/41/6 61/42/6 16/43/6 104/44/6
f 113/45/5 15/46/5 16/47/5 114/48/5
f 118/49/4 62/50/4 15/51/4 113/52/4
f 111/53/3 13/54/3 14/55/3 112/56/3
f 151/57/3 17/58/3 18/59/3 152/60/3
f 158/61/4 63/62/4 19/63/4 153/64/4
f 153/65/5 19/66/5 20/67/5 154/68/5
f 148/69/6 64/70/6 20/71/6 144/72/6
f 137/73/6 65/74/6 24/75/6 134/76/6
f 141/77/3 21/78/3 22/79/3 142/80/3
f 147/81/4 66/82/4 23/83/4 143/84/4
f 143/85/5 23/86/5 24/87/5 144/88/5
f 121/89/3 25/90/3 26/91/3 122/92/3
f 127/93/4 67/94/4 27/95/4 123/96/4
f 123/97/5 27/98/5 28/99/5 124/100/5
f 117/101/6 68/102/6 28/103/6 114/104/6
f 97/105/6 69/106/6 32/107/6 94/108/6
f 103/109/5 31/110/5 32/111/5 104/112/5
f 107/113/4 70/114/4 31/115/4 103/116/4
f 101/117/3 29/118/3 30/119/3 102/120/3
f 163/121/5 35/122/5 36/123/5 164/124/5
f 167/125/4 71/126/4 35/127/4 163/128/4
f 161/129/3 33/130/3 34/131/3 162/132/3
f 157/133/6 72/134/6 36/135/6 154/136/6
f 160/137/6 90/138/6 54/139/6 155/140/6
f 170/141/4 89/142/4 53/143/4 165/144/4
f 110/145/4 88/146/4 52/147/4 105/148/4
f 100/149/6 87/150/6 51/151/6 95/152/6
f 120/153/6 86/154/6 50/155/6 115/156/6
f 130/157/4 85/158/4 49/159/4 125/160/4
f 150/161/4 84/162/4 48/163/4 145/164/4
f 140/165/6 83/166/6 47/167/6 135/168/6
f 149/169/6 82/170/6 46/171/6 146/172/6
f 159/173/4 81/174/4 45/175/4 156/176/4
f 119/177/4 80/178/4 44/179/4 116/180/4
f 109/181/6 79/182/6 43/183/6 106/184/6
f 139/185/4 78/186/4 42/187/4 136/188/4
f 129/189/6 77/190/6 41/191/6 126/192/6
f 169/193/6 73/194/6 37/195/6 166/196/6
f 99/197/4 76/198/4 40/199/4 96/200/4
f 75/201/2 39/202/2 40/203/2 76/204/2
f 73/205/1 74/206/1 38/207/1 37/208/1
f 155/140/6 54/139/6 72/134/6 157/133/6
f 165/144/4 53/143/4 71/126/4 167/125/4
f 105/148/4 52/147/4 70/114/4 107/113/4
f 95/152/6 51/151/6 69/106/6 97/105/6
f 115/156/6 50/155/6 68/102/6 117/101/6
f 125/160/4 49/159/4 67/94/4 127/93/4
f 145/164/4 48/163/4 66/82/4 147/81/4
f 135/168/6 47/167/6 65/74/6 137/73/6
f 146/172/6 46/171/6 64/70/6 148/69/6
f 156/176/4 45/175/4 63/62/4 158/61/4
f 116/180/4 44/179/4 62/50/4 118/49/4
f 106/184/6 43/183/6 61/42/6 108/41/6
f 136/188/4 42/187/4 60/34/4 138/33/4
f 126/192/6 41/191/6 59/26/6 128/25/6
f 166/196/6 37/195/6 55/22/6 168/21/6
f 96/200/4 40/199/4 58/14/4 98/13/4
f 39/202/2 57/5/2 58/8/2 40/203/2
f 37/208/1 38/207/1 56/2/1 55/1/1
f 1/209/1 2/210/1 74/206/1 73/205/1
f 5/211/2 75/201/2 76/204/2 6/212/2
f 92/213/4 6/214/4 76/198/4 99/197/4
f 161/215/6 1/216/6 73/194/6 169/193/6
f 121/217/6 9/218/6 77/190/6 129/189/6
f 132/219/4 10/220/4 78/186/4 139/185/4
f 101/221/6 13/222/6 79/182/6 109/181/6
f 112/223/4 14/224/4 80/178/4 119/177/4
f 152/225/4 18/226/4 81/174/4 159/173/4
f 141/227/6 17/228/6 82/170/6 149/169/6
f 131/229/6 21/230/6 83/166/6 140/165/6
f 142/231/4 22/232/4 84/162/4 150/161/4
f 122/233/4 26/234/4 85/158/4 130/157/4
f 111/235/6 25/236/6 86/154/6 120/153/6
f 91/237/6 29/238/6 87/150/6 100/149/6
f 102/239/4 30/240/4 88/146/4 110/145/4
f 162/241/4 34/242/4 89/142/4 170/141/4
f 151/243/6 33/244/6 90/138/6 160/137/6
f 5/245/6 91/237/6 100/149/6 75/246/6
f 30/240/4 92/213/4 99/197/4 88/146/4
f 52/147/4 96/200/4 98/13/4 70/114/4
f 39/247/6 95/152/6 97/105/6 57/248/6
f 88/146/4 99/197/4 96/200/4 52/147/4
f 75/246/6 100/149/6 95/152/6 39/247/6
f 57/248/6 97/105/6 94/108/6 8/249/6
f 31/110/5 93/17/5 94/20/5 32/111/5
f 70/114/4 98/13/4 93/16/4 31/115/4
f 29/118/3 91/9/3 92/12/3 30/119/3
f 14/224/4 102/239/4 110/145/4 80/178/4
f 29/238/6 101/221/6 109/181/6 87/150/6
f 51/151/6 106/184/6 108/41/6 69/106/6
f 44/179/4 105/148/4 107/113/4 62/50/4
f 87/150/6 109/181/6 106/184/6 51/151/6
f 80/178/4 110/145/4 105/148/4 44/179/4
f 13/54/3 101/117/3 102/120/3 14/55/3
f 62/50/4 107/113/4 103/116/4 15/51/4
f 15/46/5 103/109/5 104/112/5 16/47/5
f 69/106/6 108/41/6 104/44/6 32/107/6
f 13/222/6 111/235/6 120/153/6 79/182/6
f 26/234/4 112/223/4 119/177/4 85/158/4
f 49/159/4 116/180/4 118/49/4 67/94/4
f 43/183/6 115/156/6 117/101/6 61/42/6
f 85/158/4 119/177/4 116/180/4 49/159/4
f 79/182/6 120/153/6 115/156/6 43/183/6
f 61/42/6 117/101/6 114/104/6 16/43/6
f 25/90/3 111/53/3 112/56/3 26/91/3
f 67/94/4 118/49/4 113/52/4 27/95/4
f 27/98/5 113/45/5 114/48/5 28/99/5
f 10/220/4 122/233/4 130/157/4 78/186/4
f 25/236/6 121/217/6 129/189/6 86/154/6
f 50/155/6 126/192/6 128/25/6 68/102/6
f 42/187/4 125/160/4 127/93/4 60/34/4
f 86/154/6 129/189/6 126/192/6 50/155/6
f 78/186/4 130/157/4 125/160/4 42/187/4
f 11/30/5 123/97/5 124/100/5 12/31/5
f 60/34/4 127/93/4 123/96/4 11/35/4
f 9/38/3 121/89/3 122/92/3 10/39/3
f 68/102/6 128/25/6 124/28/6 28/103/6
f 9/218/6 131/229/6 140/165/6 77/190/6
f 22/232/4 132/219/4 139/185/4 84/162/4
f 48/163/4 136/188/4 138/33/4 66/82/4
f 41/191/6 135/168/6 137/73/6 59/26/6
f 84/162/4 139/185/4 136/188/4 48/163/4
f 77/190/6 140/165/6 135/168/6 41/191/6
f 59/26/6 137/73/6 134/76/6 12/27/6
f 21/78/3 131/37/3 132/40/3 22/79/3
f 66/82/4 138/33/4 133/36/4 23/83/4
f 23/86/5 133/29/5 134/32/5 24/87/5
f 18/226/4 142/231/4 150/161/4 81/174/4
f 21/230/6 141/227/6 149/169/6 83/166/6
f 47/167/6 146/172/6 148/69/6 65/74/6
f 45/175/4 145/164/4 147/81/4 63/62/4
f 83/166/6 149/169/6 146/172/6 47/167/6
f 81/174/4 150/161/4 145/164/4 45/175/4
f 19/66/5 143/85/5 144/88/5 20/67/5
f 63/62/4 147/81/4 143/84/4 19/63/4
f 17/58/3 141/77/3 142/80/3 18/59/3
f 65/74/6 148/69/6 144/72/6 24/75/6
f 17/228/6 151/243/6 160/137/6 82/170/6
f 34/242/4 152/225/4 159/173/4 89/142/4
f 53/143/4 156/176/4 158/61/4 71/126/4
f 46/171/6 155/140/6 157/133/6 64/70/6
f 89/142/4 159/173/4 156/176/4 53/143/4
f 82/170/6 160/137/6 155/140/6 46/171/6
f 64/70/6 157/133/6 154/136/6 20/71/6
f 35/122/5 153/65/5 154/68/5 36/123/5
f 71/126/4 158/61/4 153/64/4 35/127/4
f 33/130/3 151/57/3 152/60/3 34/131/3
f 2/250/4 162/241/4 170/141/4 74/251/4
f 33/244/6 161/215/6 169/193/6 90/138/6
f 54/139/6 166/196/6 168/21/6 72/134/6
f 38/252/4 165/144/4 167/125/4 56/253/4
f 90/138/6 169/193/6 166/196/6 54/139/6
f 74/251/4 170/141/4 165/144/4 38/252/4
f 1/254/3 161/129/3 162/132/3 2/255/3
f 56/253/4 167/125/4 163/128/4 3/256/4
f 3/257/5 163/121/5 164/124/5 4/258/5
f 72/134/6 168/21/6 164/24/6 36/135/6
